HIERARCHY
ROOT Hips
{
  OFFSET 1.44925e-005 102.336 -0.101585
  CHANNELS 6 Xposition Yposition Zposition Zrotation Xrotation Yrotation
  JOINT LeftUpLeg
  {
    OFFSET 8.9458 -8.66707 0.101652
    CHANNELS 3 Zrotation Xrotation Yrotation
    JOINT LeftLeg
    {
      OFFSET 0 -44.4227 1.3727
      CHANNELS 3 Zrotation Xrotation Yrotation
      JOINT LeftFoot
      {
        OFFSET -0.253549 -42.0924 -1.46059
        CHANNELS 3 Zrotation Xrotation Yrotation
        JOINT LeftToes
        {
          OFFSET -0.04 -4.41509 8.4991
          CHANNELS 3 Zrotation Xrotation Yrotation
          End Site
          {
            OFFSET 0.08 -0.047448 9.77979
          }
        }
      }
    }
  }
  JOINT Spine
  {
    OFFSET 0 11.8905 0
    CHANNELS 3 Zrotation Xrotation Yrotation
    JOINT Spine1
    {
      OFFSET 0 25.6574 0.127663
      CHANNELS 3 Zrotation Xrotation Yrotation
      JOINT RightShoulder
      {
        OFFSET -8.99 -0.362252 -0.22
        CHANNELS 3 Zrotation Xrotation Yrotation
        JOINT RightArm
        {
          OFFSET -10.2827 -0.00338 0.322123
          CHANNELS 3 Zrotation Xrotation Yrotation
          JOINT RightForeArm
          {
            OFFSET -26.364 0.099144 -1.42434
            CHANNELS 3 Zrotation Xrotation Yrotation
            JOINT RightHand
            {
              OFFSET -22.0324 0.085362 1.02216
              CHANNELS 3 Zrotation Xrotation Yrotation
              End Site
              {
                OFFSET -13.3284 -0.6 1.50291
              }
            }
          }
        }
      }
      JOINT LeftShoulder1
      {
        OFFSET 8.99 -0.362252 -0.22
        CHANNELS 3 Zrotation Xrotation Yrotation
        JOINT LeftArm
        {
          OFFSET 10.2827 -0.00337999 0.322123
          CHANNELS 3 Zrotation Xrotation Yrotation
          JOINT LeftForeArm
          {
            OFFSET 26.2597 0.099144 -1.42434
            CHANNELS 3 Zrotation Xrotation Yrotation
            JOINT LeftHand
            {
              OFFSET 22.0902 0.085362 1.02216
              CHANNELS 3 Zrotation Xrotation Yrotation
              End Site
              {
                OFFSET 13.419 -0.6 1.50291
              }
            }
          }
        }
      }
      JOINT Head
      {
        OFFSET 0 8.73416 0.011341
        CHANNELS 3 Zrotation Xrotation Yrotation
        End Site
        {
          OFFSET -0.29 12.7742 2.51395
        }
      }
    }
  }
  JOINT RightUpLeg
  {
    OFFSET -8.9458 -8.66707 0.101652
    CHANNELS 3 Zrotation Xrotation Yrotation
    JOINT RightLeg
    {
      OFFSET 0 -44.4227 1.3727
      CHANNELS 3 Zrotation Xrotation Yrotation
      JOINT RightFoot
      {
        OFFSET 0.253549 -42.0924 -1.46059
        CHANNELS 3 Zrotation Xrotation Yrotation
        JOINT RightToes
        {
          OFFSET 0.04 -4.41509 8.4991
          CHANNELS 3 Zrotation Xrotation Yrotation
          End Site
          {
            OFFSET -0.08 -0.137448 9.77979
          }
        }
      }
    }
  }
}
MOTION
Frames:	16
Frame Time:	0.0333333
28.5379 94.9875 6.17534 -7.71774 5.58028 -90.4723 6.75081 0.248836 1.05684 2.50999 71.8868 12.6706 -11.8284 -1.96657 0.594395 -1.29093e-009 8.75243e-006 -1.46261e-008 8.35122 12.4887 -3.68281 4.08362 -0.205043 -2.47021 38.6713 1.78889 -0.00187254 37.4992 -32.4142 5.41707 11.0269 41.191 -3.43711 -12.8585 9.26615 0.642175 -41.9479 3.33314 -3.38378 -21.1203 6.06551 -26.3245 -2.11488 26.2381 -20.6093 5.82328 9.61819 -0.917488 0.129515 -10.6198 -0.720805 8.86787 -19.7892 -6.28277 -1.15509 37.2958 -16.8341 -2.07535 -15.6571 -0.374578 0.0462048 0.000530889 0.662642 
25.299 95.8218 5.92551 -7.63195 5.53476 -91.6569 6.53343 -6.14839 1.27652 4.54953 79.5245 12.7904 -9.804 -4.61265 0.278512 -1.29093e-009 8.75243e-006 -1.46261e-008 10.9572 12.5169 -2.7057 0.987513 -0.0892027 -0.581174 38.366 1.78041 0.00433078 42.5373 -30.7059 15.5758 10.9048 39.4741 -1.95297 -12.6561 9.2705 0.704367 -43.3363 3.44999 -3.41029 -25.2225 -0.975176 -21.4384 -7.64215 38.1973 -11.8969 5.82328 9.61819 -0.917488 -0.146682 -10.5643 -2.51859 8.92962 -16.8714 -6.32012 -1.10604 36.0362 -15.6572 -1.55004 -16.8436 -0.360753 0.0462048 0.000530889 0.662642 
22.0781 96.7764 5.72486 -7.57484 5.06047 -93.5156 5.98516 -12.1117 1.9625 8.5523 84.2458 9.46236 -8.29987 -8.21872 -0.00965201 -1.29093e-009 8.75243e-006 -1.46261e-008 12.7477 12.9492 -1.56836 -1.86905 -0.469374 1.29171 37.1698 1.7631 0.0653337 46.5934 -27.4618 25.4959 11.2242 40.1404 -1.13557 -12.6178 9.25823 0.845459 -44.4716 3.55284 -3.44324 -28.5095 -12.3915 -14.8848 -14.4084 50.0231 -1.80727 5.82328 9.61819 -0.917488 -0.489375 -10.3894 -3.68266 8.60713 -13.5172 -5.5639 -0.878924 34.0045 -14.5284 -1.14146 -18.0548 -0.347117 0.0462048 0.000530889 0.662642 
18.9017 97.6251 5.5345 -7.40021 4.48574 -94.9785 5.25862 -18.057 1.87797 13.7451 86.4281 3.76185 -7.77836 -10.3567 -0.1397 -1.29093e-009 8.75243e-006 -1.46261e-008 14.0468 13.3841 -0.674182 -4.20501 -1.11638 2.70574 35.307 1.72128 0.12923 49.3768 -23.8353 34.3742 11.3403 41.1029 0.0789876 -13.0109 9.209 1.11307 -45.1784 3.62601 -3.47972 -27.9103 -19.1293 -6.34527 -18.3269 53.4857 4.73431 5.82328 9.61819 -0.917488 -0.84706 -10.274 -4.45787 7.99433 -10.1946 -4.12642 -0.158425 31.6091 -14.5771 -0.415129 -19.2149 -0.292616 0.0462048 0.000530889 0.662642 
15.6887 98.3312 5.36876 -7.15811 3.97192 -95.9906 4.44874 -23.4565 1.20311 12.017 86.0342 4.68473 -7.93123 -11.8278 -0.237204 -1.29093e-009 8.75243e-006 -1.46261e-008 15.3277 13.5283 0.14251 -6.52287 -1.63433 3.90272 33.288 1.64722 0.130063 50.4948 -20.7164 41.7035 10.7561 39.9509 2.61706 -13.2696 9.16112 1.42651 -45.4802 3.65117 -3.48308 -25.1947 -21.1611 3.07358 -18.6715 52.5093 6.21269 5.82328 9.61819 -0.917488 -1.27423 -10.2372 -5.36421 7.20044 -7.02864 -3.32044 0.470088 29.202 -14.3501 0.119897 -19.9415 -0.241604 0.0462048 0.000530889 0.662642 
12.4023 98.8477 5.22271 -7.11321 3.57801 -96.9666 4.01196 -27.5947 0.789759 6.59622 83.0485 9.12237 -8.34534 -13.4811 -0.36557 -1.29093e-009 8.75243e-006 -1.46261e-008 16.4173 13.6088 1.00753 -8.68214 -1.8887 5.04702 31.4938 1.56556 0.0869059 49.1454 -17.6177 47.5377 9.69739 35.8144 6.09156 -13.1852 9.15142 1.56457 -45.4266 3.62803 -3.44673 -22.3076 -20.4614 12.4151 -17.5013 51.2774 4.81862 5.82328 9.61819 -0.917488 -1.66206 -10.1585 -6.29982 6.37521 -3.77765 -3.42234 0.739461 27.0324 -13.1092 0.287004 -20.7262 -0.226234 0.0462048 0.000530889 0.662642 
9.05657 99.1339 5.04671 -7.2895 3.30383 -97.7928 3.98753 -30.4042 0.709256 3.5825 77.6658 11.4428 -8.96833 -14.7734 -0.493836 -1.29093e-009 8.75243e-006 -1.46261e-008 16.8461 13.7101 1.81713 -10.0427 -1.98481 5.92837 29.9738 1.49927 0.0531004 45.6538 -14.6879 52.3452 8.73341 30.1309 9.51474 -13.3599 9.1532 1.45015 -45.1107 3.58123 -3.40352 -20.2892 -18.5338 21.2876 -15.7333 50.6355 2.14332 5.82328 9.61819 -0.917488 -1.90726 -9.91022 -6.96287 5.67326 -0.297614 -3.86113 0.771435 24.9531 -11.6035 0.643572 -21.9602 -0.185031 0.0462048 0.000530889 0.662642 
5.71215 99.2191 4.80683 -7.39535 3.1736 -98.1328 3.95071 -32.0204 0.405931 2.21039 69.7645 13.2118 -9.62565 -15.4119 -0.586629 -1.29093e-009 8.75243e-006 -1.46261e-008 16.6796 13.5182 2.54114 -10.4911 -1.85332 6.48276 28.5312 1.42833 -0.00662953 41.775 -12.8803 56.358 7.94305 25.0684 12.3952 -13.9496 9.11513 1.47293 -44.684 3.52749 -3.36238 -19.1154 -16.7743 29.0753 -14.2126 49.9479 -0.0507412 5.82328 9.61819 -0.917488 -2.11458 -9.52833 -7.47641 5.25765 3.11484 -4.28875 0.766865 22.8559 -10.5667 1.30188 -23.124 -0.0950838 0.0462048 0.000530889 0.662642 
2.3848 99.1606 4.51089 -7.30312 3.18964 -98.0641 3.78954 -32.2456 -0.131392 1.59165 59.0733 14.7923 -9.69479 -15.2796 -0.581572 -1.29093e-009 8.75243e-006 -1.46261e-008 16.2108 12.8552 3.22966 -10.3988 -1.32835 6.87502 27.0644 1.32801 -0.158506 39.5127 -12.7342 59.6226 7.16504 22.1345 14.4825 -14.2582 9.05198 1.86385 -44.2274 3.46577 -3.30897 -17.8621 -16.2231 35.4975 -13.5494 49.2567 -0.669852 5.82328 9.61819 -0.917488 -2.34203 -9.206 -7.98864 5.14326 6.24937 -4.64785 0.836934 20.8566 -10.0045 1.70215 -23.8432 -0.0330359 0.0462048 0.000530889 0.662642 
-0.994547 98.9876 4.18401 -7.21367 3.19194 -97.7834 3.59983 -31.0498 -0.273025 1.23473 46.4585 15.4813 -9.22888 -13.825 -0.437697 -1.29093e-009 8.75243e-006 -1.46261e-008 15.2836 11.9493 3.75569 -9.99247 -0.46709 7.05718 25.7992 1.21941 -0.369661 39.363 -13.5702 62.3202 6.50102 21.1646 15.6692 -14.0845 9.02026 2.23728 -43.7539 3.40534 -3.25929 -16.3561 -16.5259 40.7811 -13.3175 48.7727 -0.359654 5.82328 9.61819 -0.917488 -2.44897 -9.12332 -8.26632 5.0983 9.46559 -4.98491 0.943797 18.738 -9.66792 1.9006 -24.5643 0.00416914 0.0462048 0.000530889 0.662642 
-4.4884 98.6126 3.90247 -7.25821 3.14398 -97.2877 3.33705 -29.0912 0.619281 1.01616 34.46 15.8082 -9.19836 -11.7848 -0.27978 -1.29093e-009 8.75243e-006 -1.46261e-008 14.0102 11.0693 3.92352 -9.39877 0.487057 6.89268 25.036 1.14213 -0.543342 39.6714 -14.1101 64.235 6.30064 20.3971 16.1936 -14.1527 9.01336 2.25897 -43.2598 3.36015 -3.24185 -15.3989 -16.8529 44.8519 -13.1579 48.694 0.0682862 5.82328 9.61819 -0.917488 -2.39453 -9.28434 -8.21233 5.02166 12.9224 -5.36101 1.06044 16.5856 -9.42898 2.74623 -25.7611 0.157248 0.0462048 0.000530889 0.662642 
-8.13738 97.9511 3.76983 -7.26543 3.25935 -96.8257 3.05165 -27.2111 2.88601 0.968612 25.9342 17.1443 -9.363 -10.8623 -0.214609 -1.29093e-009 8.75243e-006 -1.46261e-008 13.1776 10.1879 3.87271 -8.99395 1.2921 6.62216 24.7641 1.09858 -0.659099 39.1411 -13.9202 64.7381 6.60171 19.2546 16.2488 -14.7114 8.97994 2.22416 -42.6642 3.31639 -3.24155 -15.475 -17.0727 47.2474 -13.2604 49.2615 0.629964 5.82328 9.61819 -0.917488 -2.33765 -9.4028 -8.13283 4.99117 16.0469 -5.77306 1.19818 15.3292 -8.98014 4.24078 -27.1861 0.448443 0.0462048 0.000530889 0.662642 
-11.9993 97.1063 3.79948 -7.0392 3.52215 -96.8879 2.84054 -25.741 5.84907 0.904482 22.0803 19.7743 -8.00364 -10.4931 -0.153749 -1.29093e-009 8.75243e-006 -1.46261e-008 12.9357 9.18743 3.89783 -8.99499 1.70541 6.54049 24.9539 1.08267 -0.726398 38.8852 -13.44 63.6476 7.02442 19.4683 15.5491 -14.9707 8.94911 2.33658 -42.0121 3.26127 -3.22595 -16.3871 -17.5285 47.8291 -13.5812 50.1381 1.3503 5.82328 9.61819 -0.917488 -2.26801 -8.99851 -8.01244 4.81334 18.384 -6.23947 1.18164 15.5077 -7.88475 5.40926 -28.4611 0.712266 0.0462048 0.000530889 0.662642 
-16.1087 96.2381 3.90546 -6.73099 3.44274 -97.3952 2.41507 -24.7878 8.30337 0.79793 22.4039 22.061 -4.29952 -8.65396 -0.0115157 -1.29093e-009 8.75243e-006 -1.46261e-008 12.1847 8.24135 3.8773 -8.93025 1.48865 6.33835 26.0743 1.14076 -0.640446 40.615 -13.3574 61.1763 7.56002 22.2778 13.6331 -14.6631 8.99161 2.15217 -41.7625 3.23721 -3.21362 -17.666 -18.4796 46.5732 -13.8728 50.6454 2.04938 5.82328 9.61819 -0.917488 -1.92283 -7.91926 -7.28209 4.05043 20.1556 -6.94116 0.674218 16.8689 -5.96581 6.7041 -29.7848 1.0387 0.0462048 0.000530889 0.662642 
-20.3275 95.4876 4.02398 -6.77411 2.55959 -97.6609 1.06961 -24.4402 9.72045 1.17202 25.7741 22.0988 0.401258 -6.15496 0.0206768 -1.29093e-009 8.75243e-006 -1.46261e-008 10.0079 7.84687 3.46213 -8.3249 0.656836 5.55264 28.4818 1.31149 -0.341115 43.8622 -14.3446 57.0649 8.71862 26.1704 10.5264 -14.6568 9.07628 1.44949 -42.2657 3.29228 -3.25158 -19.0336 -19.8468 42.6889 -14.3313 50.6855 2.92456 5.82328 9.61819 -0.917488 -1.30252 -6.7574 -5.83645 2.39769 21.3483 -7.2693 -0.235692 20.0212 -3.82276 10.0586 -30.7277 1.8059 0.0462048 0.000530889 0.662642 
-24.3571 95.0575 4.18244 -7.36719 1.03384 -97.581 -1.3691 -24.0056 8.14427 1.25505 30.0745 23.044 3.45252 -6.07667 -0.0224144 -1.29093e-009 8.75243e-006 -1.46261e-008 7.0217 8.40539 2.83318 -7.56216 -0.413915 4.51968 31.4075 1.51784 -0.0314636 46.8599 -16.7868 50.9973 10.4918 29.6286 6.39645 -15.2017 9.1319 0.727794 -43.0724 3.39567 -3.34098 -20.7033 -21.3732 35.0829 -15.2827 50.6019 4.26776 5.82328 9.61819 -0.917488 -0.827964 -6.36435 -4.4246 -0.220406 20.679 -5.03697 -0.577899 27.3753 -3.30318 15.0901 -28.9701 2.61761 0.0462048 0.000530889 0.662642 
